<svg xmlns="http://www.w3.org/2000/svg" width="18.652" height="19.42" viewBox="0 0 18.652 19.42">
  <g id="Group_37" data-name="Group 37" transform="translate(-38.882 -53.849)">
    <path id="Path_20" data-name="Path 20" d="M503.634-824.768c-1.412-1.778-.97-5.646,1.354-8.688a8.618,8.618,0,0,1,8-3.643A20.144,20.144,0,0,1,518-835.9a13.661,13.661,0,0,0-2.311,3.688c-.634,1.8-1.108,5.212-3.508,7.439S505.046-822.99,503.634-824.768Z" transform="translate(-462.152 892)" fill="none" stroke="#588697" stroke-linecap="round" stroke-width="2"/>
    <path id="Path_21" data-name="Path 21" d="M0,12.494A38.309,38.309,0,0,1,1.759,8.482,27.13,27.13,0,0,1,3.376,5.7c.4-.6.83-1.179,1.467-1.975.595-.749,1.422-1.657,2.183-2.446C7.722.555,8.343,0,8.343,0" transform="translate(40.157 59.5)" fill="none" stroke="#588697" stroke-linecap="round" stroke-width="2"/>
  </g>
</svg>
