<svg xmlns="http://www.w3.org/2000/svg" width="19.62" height="15.243" viewBox="0 0 19.62 15.243">
  <g id="Group_42" data-name="Group 42" transform="translate(-68.981 -41)">
    <g id="Group_41" data-name="Group 41" transform="translate(77.032 41)">
      <g id="Ellipse_7" data-name="Ellipse 7" transform="translate(1.968)" fill="#fff" stroke="#588697" stroke-width="2">
        <circle cx="3.5" cy="3.5" r="3.5" stroke="none"/>
        <circle cx="3.5" cy="3.5" r="2.5" fill="none"/>
      </g>
      <g id="Ellipse_8" data-name="Ellipse 8" transform="translate(1.968)" fill="#fff" stroke="#588697" stroke-width="2">
        <circle cx="3.5" cy="3.5" r="3.5" stroke="none"/>
        <circle cx="3.5" cy="3.5" r="2.5" fill="none"/>
      </g>
      <g id="Path_24" data-name="Path 24" transform="translate(0.019 7.49)" fill="#fff">
        <path d="M 10.47286128997803 3.866155624389648 L 1.0229252576828 3.866155624389648 C 1.12279736995697 3.065103530883789 1.449104189872742 1.905548810958862 2.459342479705811 1.15008556842804 C 3.436382532119751 0.419465571641922 4.61766242980957 0.01709556765854359 5.785592555999756 0.01709556765854359 C 6.915282249450684 0.01709556765854359 7.970162391662598 0.3978055715560913 8.83619213104248 1.118085622787476 C 9.632442474365234 1.780335545539856 10.16160202026367 2.607985496520996 10.40894222259521 3.578055620193481 C 10.43453788757324 3.6784348487854 10.45558166503906 3.774778127670288 10.47286128997803 3.866155624389648 Z" stroke="none"/>
        <path d="M 5.785592555999756 1.017095565795898 C 4.832112312316895 1.017095565795898 3.863512516021729 1.348735570907593 3.058212280273438 1.95093560218811 C 2.719679832458496 2.204093456268311 2.486602783203125 2.529193878173828 2.326525688171387 2.866155624389648 L 9.040798187255859 2.866155624389648 C 8.844139099121094 2.537095785140991 8.572323799133301 2.199295043945312 8.196743011474609 1.886925578117371 C 7.502772331237793 1.30974555015564 6.691542625427246 1.017095565795898 5.785592555999756 1.017095565795898 M 5.785595893859863 -0.9829058647155762 C 7.071754932403564 -0.9829058647155762 8.366785049438477 -0.5729851722717285 9.475632667541504 0.349245548248291 C 11.7946720123291 2.277995586395264 11.54097270965576 4.866155624389648 11.54097270965576 4.866155624389648 L -0.00528717041015625 4.866155624389648 C -0.00528717041015625 4.866155624389648 -0.3016271591186523 1.966065526008606 1.860472679138184 0.349245548248291 C 2.988770484924316 -0.4944930076599121 4.38188648223877 -0.9829058647155762 5.785595893859863 -0.9829058647155762 Z" stroke="none" fill="#588697"/>
      </g>
    </g>
    <g id="Group_40" data-name="Group 40" transform="translate(68.981 43.887)">
      <g id="Ellipse_7-2" data-name="Ellipse 7" transform="translate(2.019 0.113)" fill="#fff" stroke="#588697" stroke-width="2">
        <circle cx="3.5" cy="3.5" r="3.5" stroke="none"/>
        <circle cx="3.5" cy="3.5" r="2.5" fill="none"/>
      </g>
      <g id="Ellipse_8-2" data-name="Ellipse 8" transform="translate(2.019 0.113)" fill="#fff" stroke="#588697" stroke-width="2">
        <circle cx="3.5" cy="3.5" r="3.5" stroke="none"/>
        <circle cx="3.5" cy="3.5" r="2.5" fill="none"/>
      </g>
      <g id="Path_24-2" data-name="Path 24" transform="translate(0.019 7.49)" fill="#fff">
        <path d="M 10.47286128997803 3.866155624389648 L 1.0229252576828 3.866155624389648 C 1.12279736995697 3.065103530883789 1.449104189872742 1.905548810958862 2.459342479705811 1.15008556842804 C 3.436382532119751 0.419465571641922 4.61766242980957 0.01709556765854359 5.785592555999756 0.01709556765854359 C 6.915282249450684 0.01709556765854359 7.970162391662598 0.3978055715560913 8.83619213104248 1.118085622787476 C 9.632442474365234 1.780335545539856 10.16160202026367 2.607985496520996 10.40894222259521 3.578055620193481 C 10.43453788757324 3.6784348487854 10.45558166503906 3.774778127670288 10.47286128997803 3.866155624389648 Z" stroke="none"/>
        <path d="M 5.785592555999756 1.017095565795898 C 4.832112312316895 1.017095565795898 3.863512516021729 1.348735570907593 3.058212280273438 1.95093560218811 C 2.719679832458496 2.204093456268311 2.486602783203125 2.529193878173828 2.326525688171387 2.866155624389648 L 9.040798187255859 2.866155624389648 C 8.844139099121094 2.537095785140991 8.572323799133301 2.199295043945312 8.196743011474609 1.886925578117371 C 7.502772331237793 1.30974555015564 6.691542625427246 1.017095565795898 5.785592555999756 1.017095565795898 M 5.785595893859863 -0.9829058647155762 C 7.071754932403564 -0.9829058647155762 8.366785049438477 -0.5729851722717285 9.475632667541504 0.349245548248291 C 11.7946720123291 2.277995586395264 11.54097270965576 4.866155624389648 11.54097270965576 4.866155624389648 L -0.00528717041015625 4.866155624389648 C -0.00528717041015625 4.866155624389648 -0.3016271591186523 1.966065526008606 1.860472679138184 0.349245548248291 C 2.988770484924316 -0.4944930076599121 4.38188648223877 -0.9829058647155762 5.785595893859863 -0.9829058647155762 Z" stroke="none" fill="#588697"/>
      </g>
    </g>
  </g>
</svg>
