<svg xmlns="http://www.w3.org/2000/svg" width="16.03" height="17.122" viewBox="0 0 16.03 17.122">
  <g id="Group_40" data-name="Group 40" transform="translate(-68.981 -45)">
    <g id="Ellipse_7" data-name="Ellipse 7" transform="translate(72 45)" fill="#fff" stroke="#588697" stroke-width="2">
      <circle cx="5" cy="5" r="5" stroke="none"/>
      <circle cx="5" cy="5" r="4" fill="none"/>
    </g>
    <g id="Ellipse_8" data-name="Ellipse 8" transform="translate(72 45)" fill="#fff" stroke="#588697" stroke-width="2">
      <circle cx="5" cy="5" r="5" stroke="none"/>
      <circle cx="5" cy="5" r="4" fill="none"/>
    </g>
    <g id="Path_24" data-name="Path 24" transform="translate(69 55)" fill="#fff">
      <path d="M 14.96866321563721 6.122311592102051 L 1.000688433647156 6.122311592102051 C 1.081444025039673 4.961349010467529 1.479983329772949 2.938447952270508 3.184319019317627 1.663941502571106 C 4.604468822479248 0.6019615530967712 6.32344913482666 0.01709155365824699 8.024599075317383 0.01709155365824699 C 9.681279182434082 0.01709155365824699 11.22833919525146 0.575501561164856 12.49855899810791 1.631941556930542 C 13.64401912689209 2.584631443023682 14.41341876983643 3.773841619491577 14.78537940979004 5.166561603546143 C 14.88021850585938 5.521663188934326 14.93619537353516 5.846670150756836 14.96866321563721 6.122311592102051 Z" stroke="none"/>
      <path d="M 8.024599075317383 1.017091751098633 C 6.537888526916504 1.017091751098633 5.031599044799805 1.531231641769409 3.783188819885254 2.464791536331177 C 2.818662643432617 3.186064958572388 2.365766525268555 4.22669506072998 2.156207084655762 5.122311592102051 L 13.73209381103516 5.122311592102051 C 13.45653247833252 4.281950950622559 12.91528415679932 3.279200792312622 11.85910892486572 2.400781631469727 C 10.77071952819824 1.495561599731445 9.444768905639648 1.017091751098633 8.024599075317383 1.017091751098633 M 8.024603843688965 -0.9829034805297852 C 9.806873321533203 -0.9829034805297852 11.60143661499023 -0.4148626327514648 13.13799858093262 0.8631014823913574 C 16.35155868530273 3.535831451416016 15.99999904632568 7.122311592102051 15.99999904632568 7.122311592102051 L -9.5367431640625e-07 7.122311592102051 C -9.5367431640625e-07 7.122311592102051 -0.4106407165527344 3.103581666946411 2.58544921875 0.8631014823913574 C 4.148960113525391 -0.3060941696166992 6.079441070556641 -0.9829034805297852 8.024603843688965 -0.9829034805297852 Z" stroke="none" fill="#588697"/>
    </g>
  </g>
</svg>
