<svg xmlns="http://www.w3.org/2000/svg" width="15.5" height="18.077" viewBox="0 0 15.5 18.077">
  <g id="Group_39" data-name="Group 39" transform="translate(-53 -45.669)">
    <g id="Path_22" data-name="Path 22" transform="translate(53 48)" fill="none">
      <path d="M0-2.1a10.117,10.117,0,0,1,4.2,0A9.6,9.6,0,0,1,7.774-.032V15.746A16.5,16.5,0,0,0,3.9,14.528a14.374,14.374,0,0,0-3.9,0Z" stroke="none"/>
      <path d="M 2.246746063232422 -0.3313436508178711 C 2.163139343261719 -0.3313436508178711 2.080782413482666 -0.3300495147705078 1.999996185302734 -0.3276786804199219 L 1.999996185302734 12.39285182952881 C 2.007509231567383 12.39284229278564 2.015140056610107 12.39283657073975 2.02267599105835 12.39283657073975 C 2.79633617401123 12.39283657073975 3.531005859375 12.44647693634033 4.206285953521729 12.55225658416748 C 4.742683410644531 12.63628482818604 5.274934768676758 12.75908088684082 5.774295806884766 12.89732360839844 L 5.774295806884766 0.912318229675293 C 5.229930877685547 0.5133466720581055 4.452831268310547 0.03567886352539062 3.684855937957764 -0.1687135696411133 C 3.279406070709229 -0.2766227722167969 2.79555606842041 -0.3313436508178711 2.246746063232422 -0.3313436508178711 M 2.246745586395264 -2.331339836120605 C 2.868919372558594 -2.331339836120605 3.551316738128662 -2.273883819580078 4.19925594329834 -2.101432800292969 C 6.142826080322266 -1.584153175354004 7.774295806884766 -0.0323028564453125 7.774295806884766 -0.0323028564453125 L 7.774295806884766 15.74603652954102 C 7.774295806884766 15.74603652954102 5.840325832366943 14.83262634277344 3.896755933761597 14.52815628051758 C 3.248939037322998 14.42667293548584 2.599947452545166 14.39283657073975 2.02267599105835 14.39283657073975 C 0.8680276870727539 14.39283657073975 -3.814697265625e-06 14.52815628051758 -3.814697265625e-06 14.52815628051758 L -3.814697265625e-06 -2.101432800292969 C -3.814697265625e-06 -2.101432800292969 1.002625942230225 -2.331339836120605 2.246745586395264 -2.331339836120605 Z" stroke="none" fill="#588697"/>
    </g>
    <g id="Path_23" data-name="Path 23" transform="translate(60.5 48)" fill="none">
      <path d="M8-2.1a10.561,10.561,0,0,0-4.321,0A9.9,9.9,0,0,0,0,0L.232,15.746a20.721,20.721,0,0,1,3.758-.981,15.007,15.007,0,0,1,4.01,0Z" stroke="none"/>
      <path d="M 5.687860012054443 -2.331341743469238 L 5.687860012054443 -0.3313417434692383 C 5.115750312805176 -0.3313417434692383 4.610519886016846 -0.2749118804931641 4.186220169067383 -0.1636323928833008 C 3.386616706848145 0.04608249664306641 2.579394340515137 0.5344266891479492 2.014129161834717 0.9423542022705078 L 2.193336486816406 13.08018112182617 C 2.660642623901367 12.97083377838135 3.164792537689209 12.86874961853027 3.684979915618896 12.78844833374023 C 4.375439643859863 12.68185806274414 5.12693977355957 12.62781810760498 5.918580055236816 12.62781810760498 C 5.945847511291504 12.62781810760498 5.972999572753906 12.6278829574585 6 12.62801074981689 L 6 -0.3258075714111328 C 5.898378372192383 -0.3293581008911133 5.794110298156738 -0.3313398361206055 5.687970161437988 -0.3313417434692383 L 5.687860012054443 -2.331341743469238 M 5.688022136688232 -2.331339836120605 C 6.968260288238525 -2.331311225891113 8 -2.098201751708984 8 -2.098201751708984 L 8 14.76503753662109 C 8 14.76503753662109 7.106769561767578 14.6278076171875 5.918600082397461 14.62781524658203 C 5.324569702148438 14.62782001495361 4.656735897064209 14.66212749481201 3.990109920501709 14.76503753662109 C 1.990109920501709 15.07377815246582 0.2324800491333008 15.74602794647217 0.2324800491333008 15.74602794647217 L 0 -1.9073486328125e-06 C 0 -1.9073486328125e-06 1.678830146789551 -1.573652267456055 3.678830146789551 -2.098201751708984 C 4.345578193664551 -2.273077011108398 5.047785758972168 -2.331354141235352 5.688022136688232 -2.331339836120605 Z" stroke="none" fill="#588697"/>
    </g>
  </g>
</svg>
